<svg xmlns="http://www.w3.org/2000/svg" viewBox="0 0 16 16" fill="currentColor">
  <path d="M10.53 2.78a.749.749 0 1 0-1.06-1.06l-1.47 1.47-1.47-1.47a.749.749 0 1 0-1.06 1.06l1.47 1.47-1.47 1.47a.749.749 0 1 0 1.06 1.06l1.47-1.47 1.47 1.47a.749.749 0 1 0 1.06-1.06l-1.47-1.47z"></path>
  <path fill-rule="evenodd" d="m12.844 8-.336-2.265a.75.75 0 0 1 1.484-.22l.413 2.792q.095.638.095 1.282v1.661a3.25 3.25 0 0 1-3.25 3.25h-6.5a3.25 3.25 0 0 1-3.25-3.25v-1.66q0-.645.094-1.283l.414-2.792a.75.75 0 1 1 1.484.22l-.336 2.265h2.484c.538 0 1.015.344 1.185.855l.159.474a.25.25 0 0 0 .237.171h1.558a.25.25 0 0 0 .237-.17l.159-.475a1.25 1.25 0 0 1 1.185-.855zm-9.843 1.5-.001.09v1.66c0 .967.784 1.75 1.75 1.75h6.5a1.75 1.75 0 0 0 1.75-1.75v-1.75h-2.46l-.1.303a1.75 1.75 0 0 1-1.66 1.197h-1.56a1.75 1.75 0 0 1-1.66-1.197l-.1-.303h-2.46Z"></path>
</svg>

